<svg id="Capa_1" data-name="Capa 1" xmlns="http://www.w3.org/2000/svg" viewBox="0 0 619.8 148.13"><defs><style>.cls-1{fill:#22ffc0;}</style></defs><path class="cls-1" d="M0,0H29.2Q40.45,42.63,51.6,82.84l.42,0q.12-41.39.25-82.79H73q-.27,67.47-.52,134.93-11.91,1.88-23.8,3.93Q35,90.59,21.11,38.86l-.43,0Q20.62,91.45,20.54,144,10.27,146,0,148.13Z"/><path class="cls-1" d="M90.36,0h63.48l-.09,17.78q-20.1.28-40.21.66-.08,17.07-.16,34.13,16-.85,32-1.55l-.09,17.9q-16,.94-31.95,2.09-.09,19.83-.19,39.66,20.09-2.23,40.21-4,0,8.89-.08,17.78-31.78,3.27-63.45,7.88Q90.07,66.16,90.36,0Z"/><path class="cls-1" d="M185.29,17.36q-12.18.13-24.34.31Q161,8.83,161,0H233q0,8.45,0,16.9-12.18.09-24.35.21-.21,51.33-.41,102.65-11.68.78-23.35,1.74Q185.06,69.44,185.29,17.36Z"/><path class="cls-1" d="M244.2,0h61.57V16.63q-19.17,0-38.33.08l-.06,32.58q15.06-.16,30.11-.22,0,8.31,0,16.63-15.06.06-30.13.3,0,25.48-.1,51-11.69.33-23.38.83Z"/><path class="cls-1" d="M317,0h34.49C375.6,0,386,8.93,386.06,27.21q0,3.63,0,7.26c0,12.18-4.81,19.84-15.19,23v.34c11.67,3.08,15.52,12,15.56,25.36q0,10.39.07,20.78c0,5.75.24,10,2.59,14.5q-11.89-.62-23.8-1.05c-1.29-3.06-2.14-4.94-2.16-14.49q0-10.73,0-21.45c0-10.89-4.07-14.51-14.68-14.66l-8.06-.11q0,25,.07,50-11.7-.24-23.4-.29Q317,58.19,317,0Zm31.83,50.09c8.69.1,14-2.83,14-12.22,0-3,0-6,0-9,0-8.38-3.62-12.09-11.88-12.12l-10.59,0q0,16.67,0,33.34Z"/><path class="cls-1" d="M402.27,0h63.48l.09,17.77q-20.1-.3-40.22-.51.08,16,.14,31.92,16,.49,32,1.13L457.83,68q-16-.85-32-1.53.09,18.56.16,37.1,20.16,1.32,40.29,3.09,0,8.9.08,17.78-31.77-3.28-63.65-5.21Q402.49,59.59,402.27,0Z"/><path class="cls-1" d="M479.08,0h63.49q0,9.58.07,19.18-20.08-.43-40.19-.81.07,17,.16,34,16,.83,31.93,1.79,0,9.5.08,19-15.95-1.3-31.92-2.42.09,19.76.19,39.51Q523,112.44,543,115.09q0,9.59.08,19.18-31.64-4.87-63.4-8.43Q479.4,62.92,479.08,0Z"/><path class="cls-1" d="M552.09,116.7c14.22-30.46,28.46-62.39,42.78-96.24q-20.5-.55-41-1,0-9.7-.07-19.43h66V20.74c-14.37,35-28.63,67.9-42.86,99.17q21.48,3.27,42.86,7.06v21.16q-33.7-7-67.64-12.43Q552.13,126.21,552.09,116.7Z"/></svg>